<?xml version="1.0" encoding="UTF-8"?>
<!DOCTYPE svg PUBLIC "-//W3C//DTD SVG 1.1//EN" "http://www.w3.org/Graphics/SVG/1.1/DTD/svg11.dtd">
<!-- Creator: CorelDRAW 2021 (64 Bit) -->
<svg xmlns="http://www.w3.org/2000/svg" xml:space="preserve" width="352.778mm" height="352.778mm" version="1.1" style="shape-rendering:geometricPrecision; text-rendering:geometricPrecision; image-rendering:optimizeQuality; fill-rule:evenodd; clip-rule:evenodd"
viewBox="0 0 35277.76 35277.76"
 xmlns:xlink="http://www.w3.org/1999/xlink"
 xmlns:xodm="http://www.corel.com/coreldraw/odm/2003">
 <defs>
  <style type="text/css">
   <![CDATA[
    .fil0 {fill:#00973E}
    .fil11 {fill:#07CBF5}
    .fil7 {fill:#11A3E4}
    .fil10 {fill:#25CCCE}
    .fil1 {fill:#29C64B}
    .fil4 {fill:#666565}
    .fil8 {fill:#743489}
    .fil6 {fill:#97CB1A}
    .fil5 {fill:#AD1832}
    .fil2 {fill:#C8D70B}
    .fil3 {fill:#E44F28}
    .fil9 {fill:#EE920F}
   ]]>
  </style>
 </defs>
 <g id="Camada_x0020_1">
  <metadata id="CorelCorpID_0Corel-Layer"/>
  <g id="_1974823408288">
   <path class="fil0" d="M17762.72 11734.61c-187.83,296.23 -350.37,1205.01 -406.08,1629.81 -86.05,656.24 -90,1278.24 -91.37,1956.59 309.79,161.5 657.44,251.98 979.39,391 689.13,297.55 1155.91,509.17 1807.67,874.63 222.96,125.02 662.87,439.51 859.64,507.84 53.51,-989.81 157.32,-1901.84 87.68,-2933.23 -46.43,-687.78 -201.53,-2037.11 -516.93,-2512.29 -1019.87,-54.64 -1722.2,-28.8 -2720,85.65z"/>
   <path class="fil1" d="M17546.3 18380.46c114.7,72.69 323.73,332.03 430.43,458.31 126.46,149.66 282.76,369.53 420.55,488.1l526.38 -592.08c383.37,-423.99 1425.57,-1256.32 1956.68,-1443.4l31.63 -196.91c-196.77,-68.33 -636.68,-382.82 -859.64,-507.84 -651.76,-365.46 -1118.54,-577.08 -1807.67,-874.63 -321.95,-139.02 -669.6,-229.5 -979.39,-391 9.61,846.71 99.36,2282.51 281.03,3059.45z"/>
   <path class="fil0" d="M22478.91 16629.75l1255.5 -259.66c208.87,-616.78 210.57,-1893.83 58.35,-2535.45 -87.44,-368.58 -228.87,-727.5 -388.48,-1022.39 -124.87,-230.7 -438.82,-722.98 -583.57,-804.67 -192.74,-14.83 -376.78,-67.96 -552.15,-103.23l-519.77 -57.66c142.29,321.79 313.77,587.55 451.53,968.36 131.44,363.37 227.28,745.64 293.87,1149.84 167.41,1016.15 77.53,1671.2 -15.28,2664.86z"/>
   <path class="fil2" d="M18397.28 19326.87l0 44.36c148.41,107.17 272.81,324.44 395.47,485.87 108.03,142.18 293.69,362.98 347.93,523.07 152.91,193.24 298.81,444.18 439.89,663.69 109.55,170.47 323.3,619.37 452.79,722.26 189.85,-494.9 381.29,-1561.23 493.73,-2130.97 140.83,-713.67 312.28,-1608.88 353.25,-2343.76 -531.11,187.08 -1573.31,1019.41 -1956.68,1443.4l-526.38 592.08z"/>
   <path class="fil3" d="M18086.42 21045.5c27.15,392.61 621.69,2429.58 809.57,3013.83l491.84 9.32c190.64,-707.29 514.42,-1556.77 645.53,-2302.53 -129.49,-102.89 -343.24,-551.79 -452.79,-722.26 -141.08,-219.51 -286.98,-470.45 -439.89,-663.69 -107.76,46.86 -224.88,65.39 -307.9,134.51 -83.02,69.11 -0.09,28.11 -114.17,99.72l-293.98 165.61c-368.19,199.74 -322.97,108.72 -338.21,265.49z"/>
   <path class="fil2" d="M20407.19 22614.67c82.3,90.09 125.96,227.46 174.83,347.41 472.9,-335.9 1529.94,-2305.07 1832.42,-2924.47 159.86,-327.35 382.16,-767.59 502.18,-1120.26 -104.34,-42.23 -142.17,-95.04 -223.21,-173.97l-566.11 -520.48c-130.26,381.21 -223.03,760.92 -353.2,1141.2 -131.93,385.43 -270.52,759.1 -418.46,1133.56 -281.8,713.28 -602.79,1450.8 -948.45,2117.01z"/>
   <polygon class="fil4" points="18264.11,26276.72 20017.71,26283.05 20343.76,24868.02 17948.73,24861.73 "/>
   <path class="fil0" d="M14911.18 12793.66c-196.11,242.28 -562.85,1275.02 -489.23,1677.88 60.83,106.18 1049.26,311.58 1222.41,356.5 1.6,-11.64 6.64,-45.31 10.06,-53.28 22.71,-53.04 37.11,-74.2 49.49,-94.76 44.72,-490.93 101.64,-926.91 223.76,-1376.23 132.34,-486.97 304.69,-787.75 457.69,-1201.11 -253.26,70.74 -551.45,209.6 -778.27,319.4 -230.09,111.39 -479.79,280.32 -695.91,371.6z"/>
   <path class="fil5" d="M15259.56 18605.93c27.24,192.81 270.4,686.32 361.96,895.02 185.5,422.84 1124.92,2334.47 1367.01,2497.43 43.17,-119.41 73.55,-240.65 109.85,-351.01 44.17,-134.29 95.31,-230.69 139.47,-378.92 -44.61,-191.07 -199.64,-493.81 -283.91,-696.07 -97.59,-234.21 -186.75,-487.96 -283.33,-746.76 -185.21,-496.33 -317,-1022.43 -499.73,-1527.08 -74.28,-79.34 -12.95,78.13 -67.91,-82.73l-439.51 189.79c-176.2,75.85 -179.43,90.96 -365.98,90.99l-37.92 109.34z"/>
   <path class="fil6" d="M22478.91 16629.75c-62,209.22 -100.21,540.57 -153.01,781.38 -62.52,285.2 -130.99,534.82 -198.6,811.77l566.11 520.48c81.04,78.93 118.87,131.74 223.21,173.97 258.51,-473.38 727.29,-1935.1 817.79,-2547.26l-1255.5 259.66z"/>
   <path class="fil7" d="M17762.72 11734.61c997.8,-114.45 1700.13,-140.29 2720,-85.65 -96.89,-299.26 -344.31,-632.1 -531.45,-817.17 -131.65,-130.19 -552.42,-524.69 -846.64,-498.05 -505.15,45.75 -1204.98,925.61 -1341.91,1400.87z"/>
   <path class="fil8" d="M15259.56 18605.93l37.92 -109.34c186.55,-0.03 189.78,-15.14 365.98,-90.99l439.51 -189.79c54.96,160.86 -6.37,3.39 67.91,82.73l-339.01 -1488.04c-193.4,-84.82 -463.49,-307.09 -657.87,-425.57 -193.38,-117.88 -467.71,-305.89 -688,-385.07 47.37,510.96 453.28,1910.59 689.65,2462.21l83.91 143.86z"/>
   <path class="fil1" d="M14486 15999.86c220.29,79.18 494.62,267.19 688,385.07 194.38,118.48 464.47,340.75 657.87,425.57 -83.78,-801.99 -150.57,-1293.44 -127.96,-2130.5 -12.38,20.56 -26.78,41.72 -49.49,94.76 -3.42,7.97 -8.46,41.64 -10.06,53.28 -173.15,-44.92 -1161.58,-250.32 -1222.41,-356.5 -58.48,95.75 -42.43,271.33 -42.32,384.56 0.3,333.11 35.46,839.97 106.37,1143.76z"/>
   <path class="fil0" d="M24269.5 16297.38l460.16 -3.57c181.2,-492.4 268.47,-1683.54 152.73,-2241.12 -73.28,-353.07 -198.94,-664.78 -349.19,-958.04 -101.29,-197.73 -398.16,-701.13 -524.57,-759.62l-356.89 -84.33c127.82,260.76 292.98,473.05 431.59,797.46 128.6,300.97 223.04,602.84 285.07,948.17 158.61,882.9 7.38,1476.34 -98.9,2301.05z"/>
   <path class="fil8" d="M14863.76 19595.09c44.93,-138.49 -48.6,-47.5 111.61,-121.5 73.44,-33.93 82,-31.65 176.69,-24.39 -104.65,-273.99 -274.45,-566.12 -390.76,-851.27 -113.93,-279.3 -232.94,-564.23 -349.35,-885.36 -223.24,-615.79 -401.82,-1328.75 -497.31,-2019.48l-502.31 -196.93c72.42,918.85 509.91,2183.1 910.95,3047.33 157.5,339.43 324.8,778.18 540.48,1051.6z"/>
   <path class="fil6" d="M23219.75 19277.27c55.51,35.6 63.1,41.42 115.82,91.98 107.67,103.26 2.91,51.82 152.46,118.43 375.68,-537.36 1118.49,-2391.36 1241.63,-3193.87l-460.16 3.57c-69.06,204.38 -128.17,540.92 -197.93,781.79 -76.5,264.17 -158.06,516.32 -250.44,769.79 -183.84,504.41 -421.67,959.36 -601.38,1428.31z"/>
   <path class="fil2" d="M20693.56 23236.5l32.09 85.47c6.74,-4.51 16.38,-21.01 18.95,-15.25 2.58,5.78 15.18,-12.29 18.72,-15.62l726.6 -826.05c257.53,-320.71 471.45,-594.32 726.43,-931.46 326.12,-431.19 1064.08,-1573.99 1271.68,-2045.91 -149.55,-66.61 -44.79,-15.17 -152.46,-118.43 -52.72,-50.56 -60.31,-56.38 -115.82,-91.98l-562.04 1040.38c-426.19,745.77 -1100.49,1750.74 -1618.73,2438.06 -99.76,132.3 -301.85,363.64 -345.42,480.79z"/>
   <path class="fil9" d="M17856.36 20097.07c29.63,173.69 157.69,848.31 230.06,948.43 15.24,-156.77 -29.98,-65.75 338.21,-265.49l293.98 -165.61c114.08,-71.61 31.15,-30.61 114.17,-99.72 83.02,-69.12 200.14,-87.65 307.9,-134.51 -54.24,-160.09 -239.9,-380.89 -347.93,-523.07 -122.66,-161.43 -247.06,-378.7 -395.47,-485.87 -97.47,116.84 -181.52,215.7 -279.03,358.28 -78.24,114.4 -185.92,280.43 -261.89,367.56z"/>
   <path class="fil10" d="M21748.79 11846.69l519.77 57.66c175.37,35.27 359.41,88.4 552.15,103.23 -46.48,-91.61 -2.1,-16 -47.21,-76.97 -24.27,-32.81 -41.32,-50.01 -68.59,-79.32l-428.26 -416.82c-488.56,-412.38 -1555.95,-1067.06 -2179.8,-1084.29 1234.91,642.47 1340.27,1199.48 1651.94,1496.51z"/>
   <path class="fil5" d="M14863.76 19595.09c98.45,267.09 764.82,1306.3 910.66,1516.08 167.1,240.36 892.06,1275.16 1072.69,1390.61l64.98 -172.69 -100.42 -172.36c-602.51,-800.07 -1194.08,-1841.76 -1659.61,-2707.53 -94.69,-7.26 -103.25,-9.54 -176.69,24.39 -160.21,74 -66.68,-16.99 -111.61,121.5z"/>
   <path class="fil11" d="M14911.18 12793.66c216.12,-91.28 465.82,-260.21 695.91,-371.6 226.82,-109.8 525.01,-248.66 778.27,-319.4 110.68,-139.35 185.37,-394.96 322.17,-456.9 -156.54,-56.83 -175.42,-92.03 -293.63,-168.09 -110.47,-71.08 -153.21,-76.7 -217.5,-184.95 -321.99,190.81 -1127.4,1069.02 -1285.22,1500.94z"/>
   <path class="fil3" d="M16988.53 21998.38c68.67,200.61 618.92,865.23 754.33,1024.74 189.24,222.94 653.56,778.74 863.2,930.23 -95.16,-205.15 -240.45,-409.53 -355.08,-626.29l-688.09 -1352.32c-99.4,-208.34 -195.98,-511.35 -325.04,-706.29 -44.16,148.23 -95.3,244.63 -139.47,378.92 -36.3,110.36 -66.68,231.6 -109.85,351.01z"/>
   <path class="fil11" d="M13426.43 13987.33c210.44,-133.23 392.51,-396.69 631.47,-557.02 326.87,-1084.85 957.55,-1713.14 1760.68,-2374.95 -833.15,220.22 -2201.63,1819.97 -2392.15,2931.97z"/>
   <path class="fil7" d="M16196.4 11292.72c64.29,108.25 107.03,113.87 217.5,184.95 118.21,76.06 137.09,111.26 293.63,168.09 244.02,-513.52 947.88,-1021.36 1473.35,-1295.82 -592.81,34.42 -1553.45,593.57 -1984.48,942.78z"/>
   <path class="fil1" d="M13412.33 15496.16l502.31 196.93c-57.33,-433.6 -93.77,-832.57 -54.68,-1284.81l-450.74 -75.59 -8.76 -104.05c-137.09,188.06 -46.36,1006.97 11.87,1267.52z"/>
   <path class="fil5" d="M17856.36 20097.07c75.97,-87.13 183.65,-253.16 261.89,-367.56 97.51,-142.58 181.56,-241.44 279.03,-358.28l0 -44.36c-137.79,-118.57 -294.09,-338.44 -420.55,-488.1 -106.7,-126.28 -315.73,-385.62 -430.43,-458.31l310.06 1716.61z"/>
   <path class="fil0" d="M13426.43 13987.33l-25.97 241.31 8.76 104.05 450.74 75.59c16.93,-280.99 97.14,-738.94 197.94,-977.97 -238.96,160.33 -421.03,423.79 -631.47,557.02z"/>
   <path class="fil10" d="M23651.74 12250.7l356.89 84.33c-140.52,-310.12 -1095.61,-1181.69 -1550.79,-1283.24 500.61,453.58 421.17,289.81 924.89,863.41 91.28,103.93 163.89,228.67 269.01,335.5z"/>
   <path class="fil3" d="M20582.02 22962.08c-48.87,-119.95 -92.53,-257.32 -174.83,-347.41 -115.61,213.31 -232.78,443.31 -340.95,650.38 -115.31,220.72 -292.93,460.85 -368.55,665.44 158.59,-83.19 303.13,-304.2 467.03,-461.82 83.22,-80.02 362.07,-404.54 417.3,-506.59z"/>
   <path class="fil3" d="M16847.11 22501.78l613.22 734c250.41,245.83 387.84,462.37 677.66,686.91l-1225.9 -1593.6 -64.98 172.69z"/>
   <path class="fil3" d="M20725.65 23321.97l-32.09 -85.47c-110.63,74.31 -436.27,513.78 -465.57,599.65 105.19,-63.33 449.38,-416.48 497.66,-514.18z"/>
  </g>
 </g>
</svg>
